<mxfile host="app.diagrams.net" modified="2022-07-20T10:06:43.498Z" agent="5.0 (Macintosh)" etag="rk-pkKZ6mlzaK41uxO_E" version="16.6.6" type="github">
  <diagram id="V48ThPlOWSSbvWHUWCuM" name="Page-1">
    <mxGraphModel dx="946" dy="589" grid="1" gridSize="10" guides="1" tooltips="1" connect="1" arrows="1" fold="1" page="1" pageScale="1" pageWidth="827" pageHeight="1169" math="0" shadow="0">
      <root>
        <mxCell id="0" />
        <mxCell id="1" parent="0" />
        <mxCell id="UuvGURshNNqJvuhq-nEc-16" value="Client" style="sketch=0;outlineConnect=0;fontColor=#232F3E;gradientColor=none;strokeColor=#232F3E;fillColor=#ffffff;dashed=0;verticalLabelPosition=bottom;verticalAlign=top;align=center;html=1;fontSize=12;fontStyle=0;aspect=fixed;shape=mxgraph.aws4.resourceIcon;resIcon=mxgraph.aws4.client;rounded=0;" vertex="1" parent="1">
          <mxGeometry x="50" y="120" width="60" height="60" as="geometry" />
        </mxCell>
        <mxCell id="UuvGURshNNqJvuhq-nEc-17" value="Mobile client" style="sketch=0;outlineConnect=0;fontColor=#232F3E;gradientColor=none;strokeColor=#232F3E;fillColor=#ffffff;dashed=0;verticalLabelPosition=bottom;verticalAlign=top;align=center;html=1;fontSize=12;fontStyle=0;aspect=fixed;shape=mxgraph.aws4.resourceIcon;resIcon=mxgraph.aws4.mobile_client;rounded=0;" vertex="1" parent="1">
          <mxGeometry x="50" y="270" width="60" height="60" as="geometry" />
        </mxCell>
        <mxCell id="UuvGURshNNqJvuhq-nEc-19" value="" style="points=[[0.35,0,0],[0.98,0.51,0],[1,0.71,0],[0.67,1,0],[0,0.795,0],[0,0.65,0]];verticalLabelPosition=bottom;sketch=0;html=1;verticalAlign=top;aspect=fixed;align=center;pointerEvents=1;shape=mxgraph.cisco19.user;fillColor=#005073;strokeColor=none;rounded=0;fontColor=#46495D;" vertex="1" parent="1">
          <mxGeometry x="130" y="210" width="50" height="50" as="geometry" />
        </mxCell>
      </root>
    </mxGraphModel>
  </diagram>
</mxfile>
